:SAMPLES-PER-SECOND 30
:FULLY-SPECIFIED
:DEGREES
133
root  -23.1303 39.76 -29.0952 4.28192 37.5551 5.40115
RightUpLeg  -1.77276 -8.79693 -15.2991
RightLeg  34.2445 -5.78346 -4.51516
RightFoot  -12.9868 -0.0646871 1.63085
RightToes  0.000482159 0.542163 -0.142577
Spine  11.6715 -0.824919 -2.28736
Spine1  7.84449 -0.554671 -1.94367
HEad  -10.0227 21.338 -12.8526
LeftShoulder1  8.95598 -13.4621 -46.0385
LeftArm  -6.50851 12.0299 -24.5747
LeftForeArm  79.5962 -79.4109 -90.484
LeftHand  -0.25398 0.0180481 5.50724
RightShoulder  4.5041 8.25687 32.3567
RightArm  -20.5768 -37.8257 25.1475
RightForeArm  69.4928 73.3464 132.671
RightHand  1.06935 -15.7102 -12.7624
LeftUpLeg  -11.1359 27.0536 -7.71757
LeftLeg  20.9896 3.32355 1.53397
LeftFoot  -12.7264 0.0608879 -1.29131
LeftToes  1.06245e-005 4.65856e-005 -8.18503e-006
134
root  -21.9756 40.0463 -28.4922 3.41779 40.0919 4.79483
RightUpLeg  -6.57904 -6.63598 -11.665
RightLeg  38.1926 -6.64467 -5.8393
RightFoot  -13.0355 -0.0660806 1.4582
RightToes  0.000482159 0.542163 -0.142577
Spine  11.4849 -1.00453 -2.02208
Spine1  8.1701 -0.854812 -1.60976
HEad  -7.81545 20.602 -12.3199
LeftShoulder1  8.85068 -13.4264 -45.5782
LeftArm  -7.20552 12.7606 -25.2194
LeftForeArm  79.3465 -79.409 -90.3578
LeftHand  -0.25398 0.0180481 5.50724
RightShoulder  4.56645 8.45549 32.242
RightArm  -19.7091 -36.4844 24.7974
RightForeArm  67.7281 73.9665 130.195
RightHand  1.03429 -15.8399 -12.2363
LeftUpLeg  -6.16714 23.0257 -5.8706
LeftLeg  17.4846 5.28662 -0.146816
LeftFoot  -12.8739 0.054292 -1.72239
LeftToes  1.06245e-005 4.65856e-005 -8.18503e-006
135
root  -20.813 40.2775 -27.8704 2.60515 42.8629 3.75826
RightUpLeg  -11.3829 -6.9614 -8.3553
RightLeg  38.7742 -7.52343 -6.69822
RightFoot  -11.8438 -0.0769258 0.711246
RightToes  0.000482159 0.542163 -0.142577
Spine  11.0724 -1.3827 -1.50045
Spine1  8.31895 -1.38882 -0.982422
HEad  -5.88076 19.9768 -11.744
LeftShoulder1  8.75465 -13.4525 -44.9926
LeftArm  -7.93905 13.5968 -25.8621
LeftForeArm  79.3567 -79.4053 -90.4116
LeftHand  -0.25398 0.0180481 5.50724
RightShoulder  4.61384 8.64181 32.0456
RightArm  -18.854 -35.3547 24.4525
RightForeArm  66.2369 74.201 129.098
RightHand  1.00476 -15.0937 -12.7919
LeftUpLeg  -1.62859 13.7064 -4.11698
LeftLeg  13.4862 12.1454 -2.05707
LeftFoot  -12.7916 0.0520005 -1.94149
LeftToes  1.06245e-005 4.65856e-005 -8.18503e-006
136
root  -19.6753 40.3764 -27.2215 1.32742 45.2634 2.33049
RightUpLeg  -15.6327 -8.19826 -5.14595
RightLeg  36.1716 -7.91209 -6.42248
RightFoot  -9.43696 -0.0812199 0.91532
RightToes  0.000482159 0.542163 -0.142577
Spine  11.168 -1.52463 -0.859372
Spine1  8.30325 -1.68397 -0.3758
HEad  -4.70752 19.2031 -11.0369
LeftShoulder1  8.71289 -13.5186 -44.5869
LeftArm  -8.5508 14.0296 -26.3944
LeftForeArm  80.5738 -79.3957 -91.6863
LeftHand  -0.25398 0.0180481 5.50724
RightShoulder  4.63295 8.72978 31.9282
RightArm  -18.4412 -34.4216 24.1165
RightForeArm  65.1707 74.0896 129.457
RightHand  1.00003 -14.1152 -14.0491
LeftUpLeg  2.22182 7.17926 -3.25142
LeftLeg  10.1793 16.3852 -3.26199
LeftFoot  -13.0944 0.0530761 -1.67829
LeftToes  1.06245e-005 4.65856e-005 -8.18503e-006
137
root  -18.5387 40.2893 -26.5508 -0.156891 47.2832 1.40788
RightUpLeg  -18.6651 -9.20935 -2.69074
RightLeg  31.1633 -8.31572 -5.62066
RightFoot  -7.18412 -0.111628 1.75213
RightToes  0.000482159 0.542163 -0.142577
Spine  12.0427 -1.43514 -0.626256
Spine1  8.24229 -1.72086 -0.0114748
HEad  -4.21547 18.1848 -10.2626
LeftShoulder1  8.72432 -13.5657 -44.5193
LeftArm  -9.13718 13.8723 -26.7337
LeftForeArm  83.2475 -79.3657 -94.4483
LeftHand  -0.25398 0.0180481 5.50724
RightShoulder  4.64602 8.77246 31.903
RightArm  -18.7344 -33.6303 24.0148
RightForeArm  65.1634 73.8184 130.547
RightHand  1.01678 -13.6958 -14.9278
LeftUpLeg  5.76132 4.83435 -3.14469
LeftLeg  8.78925 16.9337 -3.37395
LeftFoot  -14.2843 0.0582879 -1.0817
LeftToes  1.06245e-005 4.65856e-005 -8.18503e-006
138
root  -17.3389 40.0163 -25.8417 -0.802444 49.3987 1.83311
RightUpLeg  -20.724 -10.9694 -1.41786
RightLeg  24.3361 -7.84381 -4.21208
RightFoot  -5.36414 -0.149252 2.17671
RightToes  0.000482159 0.542163 -0.142577
Spine  12.7758 -1.37665 -1.15447
Spine1  8.47409 -1.77674 0.114333
HEad  -3.987 16.9249 -9.51639
LeftShoulder1  8.75732 -13.5423 -44.7597
LeftArm  -9.73899 13.1432 -26.8448
LeftForeArm  85.792 -79.3157 -97.0655
LeftHand  -0.25398 0.0180481 5.50724
RightShoulder  4.66766 8.81108 31.9602
RightArm  -19.6124 -32.9772 24.2427
RightForeArm  66.2623 73.4875 131.897
RightHand  1.0542 -13.8494 -15.1671
LeftUpLeg  8.97685 4.15991 -4.00825
LeftLeg  8.93344 16.0892 -2.75838
LeftFoot  -15.9992 0.0822767 -0.345859
LeftToes  1.06245e-005 4.65856e-005 -8.18503e-006
139
root  -16.0411 39.6454 -25.0607 -0.536407 51.6201 3.07967
RightUpLeg  -22.0638 -12.9884 -1.16034
RightLeg  15.9548 -6.79648 -1.74957
RightFoot  -3.10613 -0.215692 2.67236
RightToes  0.000482159 0.542163 -0.142577
Spine  12.7419 -1.40692 -1.85483
Spine1  9.06766 -1.85474 0.018765
HEad  -3.74328 15.4602 -8.79854
LeftShoulder1  8.77587 -13.4776 -45.0368
LeftArm  -10.2675 12.0736 -26.8911
LeftForeArm  86.4032 -79.2943 -97.7756
LeftHand  -0.25398 0.0180481 5.50724
RightShoulder  4.67004 8.75891 32.1419
RightArm  -20.7285 -32.4262 24.707
RightForeArm  67.7701 73.1139 133.348
RightHand  1.09216 -14.1405 -15.1722
LeftUpLeg  12.2555 3.8944 -5.09597
LeftLeg  9.01611 14.701 -2.35985
LeftFoot  -17.663 0.130229 0.436371
LeftToes  1.06245e-005 4.65856e-005 -8.18503e-006
140
root  -14.6505 39.2314 -24.1856 -0.222977 53.5302 4.1916
RightUpLeg  -22.0858 -9.96002 -3.33471
RightLeg  6.80505 -10.489 2.0033
RightFoot  -0.94569 -0.383696 4.13992
RightToes  0.000482159 0.542163 -0.142577
Spine  12.3401 -1.41789 -2.13135
Spine1  9.69601 -1.78783 -0.33454
HEad  -3.36655 13.9539 -8.14691
LeftShoulder1  8.75513 -13.4344 -45.045
LeftArm  -10.7287 11.159 -27.1094
LeftForeArm  85.3349 -79.3103 -96.8343
LeftHand  -0.25398 0.0180481 5.50724
RightShoulder  4.6443 8.59144 32.4569
RightArm  -21.73 -31.823 25.2596
RightForeArm  68.8292 72.8073 134.459
RightHand  1.11516 -14.2279 -15.3185
LeftUpLeg  15.9398 4.22865 -5.29444
LeftLeg  8.63915 12.4173 -2.70134
LeftFoot  -19.4237 0.163432 0.680764
LeftToes  1.06245e-005 4.65856e-005 -8.18503e-006
